<svg width="146" height="37" viewBox="0 0 146 37" fill="none" xmlns="http://www.w3.org/2000/svg">
<g clip-path="url(#clip0_27_53)">
<path d="M42.5193 20.4426C42.5193 15.6404 46.294 13.0381 50.0193 13.0381C53.7445 13.0381 57.5192 15.6449 57.5192 20.4426C57.5192 25.2403 53.7445 27.847 50.0193 27.847C46.294 27.847 42.5193 25.2403 42.5193 20.4426ZM50.0193 25.0793C52.365 25.0793 54.486 23.3802 54.486 20.4426C54.486 17.5049 52.365 15.8058 50.0193 15.8058C47.6735 15.8058 45.5256 17.5049 45.5256 20.4426C45.5256 23.3802 47.678 25.0793 50.0193 25.0793Z" fill="white"/>
<path d="M59.1684 20.4426C59.1684 15.6404 62.9161 13.0381 66.6684 13.0381C69.1758 13.0381 71.4946 14.2185 72.8157 16.5481L70.5554 17.9476C69.7286 16.633 68.322 15.8058 66.6953 15.8058C64.3811 15.8058 62.1747 17.5049 62.1747 20.4426C62.1747 23.3802 64.3811 25.0793 66.6953 25.0793C68.322 25.0793 69.7286 24.2566 70.5554 22.9375L72.8157 24.3371C71.4946 26.6398 69.1758 27.847 66.6684 27.847C62.9206 27.847 59.1684 25.2403 59.1684 20.4426Z" fill="white"/>
<path d="M88.2471 27.5745H85.2139V25.4327C84.4409 26.7473 82.9266 27.8472 80.6078 27.8472C77.66 27.8472 75.121 26.0095 75.121 21.7037V13.311H78.1812V21.2118C78.1812 23.7068 79.5608 25.1063 81.6818 25.1063C83.8028 25.1063 85.2094 23.7068 85.2094 21.2118V13.311H88.2426V27.5745H88.2471Z" fill="white"/>
<path d="M91.2803 8.09741H94.3136V27.5744H91.2803V8.09741Z" fill="white"/>
<path d="M96.6548 20.4426C96.6548 15.6404 100.429 13.0381 104.155 13.0381C107.88 13.0381 111.655 15.6449 111.655 20.4426C111.655 25.2403 107.88 27.847 104.155 27.847C100.429 27.847 96.6548 25.2403 96.6548 20.4426ZM104.155 25.0793C106.5 25.0793 108.621 23.3802 108.621 20.4426C108.621 17.5049 106.5 15.8058 104.155 15.8058C101.809 15.8058 99.6611 17.5049 99.6611 20.4426C99.6611 23.3802 101.814 25.0793 104.155 25.0793Z" fill="white"/>
<path d="M112.756 23.9257L115.236 23.2416C115.537 24.4488 116.449 25.4102 117.937 25.4102C119.065 25.4102 120.17 24.8334 120.17 23.5725C120.17 22.6693 119.564 22.1193 118.184 21.5693L116.638 20.9925C114.266 20.0893 113.277 18.6317 113.277 16.9594C113.277 14.5449 115.398 13.0381 117.991 13.0381C120.444 13.0381 122.237 14.3839 122.732 16.4676L120.332 17.098C119.919 15.9444 119.119 15.4526 118.126 15.4526C117.025 15.4526 116.252 16.0562 116.252 16.9862C116.252 17.7285 116.719 18.3589 118.018 18.8239L119.424 19.3739C121.411 20.1162 123.199 21.1311 123.199 23.5725C123.199 26.4252 120.772 27.8515 117.959 27.8515C115.146 27.8515 113.192 26.452 112.751 23.9302L112.756 23.9257Z" fill="white"/>
<path d="M121.545 30.0425H122.264C124.331 30.0425 125.599 29.4658 125.599 26.6399V13.3109H128.659V26.9439C128.659 31.3035 126.506 32.8684 122.399 32.8684H121.545V30.0425ZM125.599 8.09741H128.659V10.8115H125.599V8.09741Z" fill="white"/>
<path d="M130.973 20.4426C130.973 15.5331 134.528 13.0381 137.92 13.0381C140.54 13.0381 142.36 14.4644 142.881 15.5912H142.962V13.3153H145.996V27.5788H142.962V25.3029H142.881C142.356 26.4296 140.536 27.856 137.92 27.856C134.528 27.856 130.973 25.361 130.973 20.4515V20.4426ZM138.5 25.1061C140.814 25.1061 143.048 23.5143 143.048 20.4426C143.048 17.3708 140.814 15.779 138.5 15.779C136.186 15.779 133.979 17.3708 133.979 20.4426C133.979 23.5143 136.213 25.1061 138.5 25.1061Z" fill="white"/>
<path d="M52.5672 11.2005H48.1005L50.0148 8.09741H54.4815L52.5672 11.2005Z" fill="#59BEC1"/>
<path d="M141.039 11.2005H136.572L138.487 8.09741H142.949L141.039 11.2005Z" fill="#59BEC1"/>
<path d="M24.6973 6.40293L22.064 10.9368C25.4208 12.8684 27.6901 16.4768 27.6901 20.6038C27.6901 26.7563 22.6617 31.7597 16.4784 31.7597C10.295 31.7597 5.2666 26.7563 5.2666 20.6038C5.2666 14.4513 10.2771 9.46577 16.4424 9.44788V4.20752C7.37415 4.22988 0 11.5762 0 20.6038C0 29.6313 7.39212 37 16.4784 37C25.5646 37 32.9567 29.6447 32.9567 20.6038C32.9567 14.5407 29.6314 9.23773 24.6973 6.40293Z" fill="#59BEC1"/>
<path d="M16.4424 9.448V20.6307L22.0685 10.9369C20.4238 9.98903 18.514 9.448 16.4783 9.448C16.4649 9.448 16.4559 9.448 16.4424 9.448Z" fill="white"/>
<path d="M16.4514 4.20757C19.4577 4.20757 22.2707 5.0124 24.6928 6.40745L26.8094 2.76334C23.7627 1.00612 20.2261 -0.00439453 16.4514 -0.00439453V4.2031V4.20757Z" fill="white"/>
</g>
<defs>
<clipPath id="clip0_27_53">
<rect width="146" height="37" fill="white"/>
</clipPath>
</defs>
</svg>
