<svg width="51" height="51" viewBox="0 0 51 51" fill="none" xmlns="http://www.w3.org/2000/svg">
    <circle cx="25.5" cy="25.5" r="25.5" fill="white"/>
    <path d="M37.441 23.8808L27.3297 23.9125V13.6189C27.3297 12.722 26.6344 12 25.7707 12C24.9073 12 24.2118 12.722 24.2118 13.6189L24.2423 23.8811H14.559C13.6953 23.8811 13 24.6031 13 25.5C13 26.3966 13.6953 27.1186 14.559 27.1186H24.2271V37.3811C24.2271 38.2774 24.9223 39 25.786 39C26.6497 39 27.345 38.2774 27.345 37.3811V27.1189H37.441C38.3047 27.1189 39 26.3963 39 25.5C39 24.6028 38.2969 23.8808 37.441 23.8808Z" fill="#CACACA"/>
    </svg>
    